<svg width="1920" height="568" viewBox="0 0 1920 568" fill="none" xmlns="http://www.w3.org/2000/svg">
<path d="M225 257C447 732.494 920 640.5 1920 115.5V568H0L225 257Z" fill="#F8F9FA"/>
<path d="M225 257C447 732.494 920 640.5 1920 115.5V568H0L225 257Z" fill="#F8F9FA"/>
<path d="M48 62C336 257 756 737.5 1920 115.5V521H0L48 62Z" fill="#FF9500"/>
<path d="M0 0.5C465 509.5 1004.5 615 1920 152V568H0V0.5Z" fill="#F8F9FA"/>
<path d="M0 0.5C465 509.5 1004.5 615 1920 152V568H0V0.5Z" fill="#F8F9FA"/>
<path d="M0 0.5C465 509.5 1004.5 615 1920 152V568H0V0.5Z" fill="#F8F9FA"/>
</svg>
